<?xml version="1.0" encoding="utf-8"?>
<!-- Generator: Adobe Illustrator 18.0.0, SVG Export Plug-In . SVG Version: 6.00 Build 0)  -->
<!DOCTYPE svg PUBLIC "-//W3C//DTD SVG 1.1//EN" "http://www.w3.org/Graphics/SVG/1.1/DTD/svg11.dtd">
<svg version="1.1" id="logo" xmlns="http://www.w3.org/2000/svg" xmlns:xlink="http://www.w3.org/1999/xlink" x="0px" y="0px"
	 viewBox="0 0 100 100" enable-background="new 0 0 100 100" xml:space="preserve">
<g id="mediawiki">
	<g id="corchetes">
		<path fill="#006697" d="M5,64h9.3v-1.7C9.1,61.9,9,61.6,9,57.9V29.1c0-3.7,0.2-4,5.3-4.5v-1.7H5V64z"/>
		<path fill="#006697" d="M19.8,64h9.3v-1.7c-5.2-0.4-5.3-0.7-5.3-4.4V44.3c0,0,0,0,0.1,0v-0.2c0,0,0,0-0.1,0v-15
			c0-3.7,0.2-4,5.3-4.5v-1.7h-9.3V64z"/>
		<path fill="#006697" d="M69,24.6c5,0.4,5.3,0.7,5.3,4.4v28.9c0,3.7-0.2,4-5.3,4.4V64h9.3V22.9H69V24.6z"/>
		<path fill="#006697" d="M83.9,22.9v1.7c5,0.4,5.3,0.7,5.3,4.4v28.9c0,3.7-0.2,4-5.3,4.4V64h9.3V22.9H83.9z"/>
	</g>
	<g id="petalos">
		<path fill="#FFC200" d="M51.9,55.4c-0.9,0.2-1.8,0.3-2.8,0.3c-0.4,0-0.9,0-1.3-0.1c0,0,0,0,0,0c-0.6,3.1-1.8,7.3-2.5,9.2
			c0.3,1.7,0,3.5-0.7,5c1.1,0.8,3.6,0.3,4.5-0.7c0.9-1.1,1.6-2.6,2.1-3.9C52.1,62.5,52.3,58.5,51.9,55.4z"/>
		<path fill="#FFC200" d="M41.3,52.8c-1.2,3.1-3.7,7.1-5.9,9.4c0.6,2.1-1.9,3.1-3.7,3.4c1.9,2.7,5.2,1.3,6.9-0.9
			c0.7-3.2,2.7-8,5-10.4C42.8,54,42,53.4,41.3,52.8z"/>
		<path fill="#FFC200" d="M45.3,64.4C45.3,64.4,45.3,64.4,45.3,64.4c0.6-2.1,1.8-5.9,2.3-8.8c0,0,0,0,0,0c-1.3-0.2-2.6-0.6-3.8-1.1
			c-2.1,2.2-4.1,6.5-4.9,9.6c0,0,0,0,0,0c-0.3,1.9-0.5,3.8-0.9,5.6C41.4,69.7,44.3,67.5,45.3,64.4C45.3,64.4,45.3,64.4,45.3,64.4
			L45.3,64.4z"/>
		<path fill="#FFC200" d="M40.1,51.7c-2.2,1.7-6.2,3.9-9.1,5.1c-2.4,2.3-4.5,5.1-5,8.5c0.1,0.2,0.6,0.1,0.9,0.2c3.1,0,6-1.5,8.4-3.4
			c0,0,0,0,0,0c2.2-2.4,4.6-6.3,5.8-9.3C40.8,52.3,40.4,52,40.1,51.7z"/>
		<path fill="#FFC200" d="M52.1,55.3c0.4,3.2,0.2,7.4-0.6,10.2c0.9,1.8,1.9,3.6,2,5.6c3.5-0.7,4.6-4.8,4.3-7.8c0,0,0,0,0,0
			c-0.5-2.1-1.6-5.1-3.4-8.9C53.8,54.8,53,55.1,52.1,55.3z"/>
		<path fill="#FFC200" d="M38.4,49.3c-1,0.3-2.1,0.6-3.4,1c-3.2,1-6.9,2.2-9.9,2.2c-0.7,0.5-1.6,0.5-2.3,1c1.3,3,4.8,3.8,7.7,3.2
			c2.9-1.2,7.1-3.4,9.4-5.2C39.4,50.8,38.9,50.1,38.4,49.3z"/>
		<path fill="#FFC200" d="M37.4,46.4c-0.2-0.9-0.4-1.9-0.4-2.8c0-0.2,0-0.4,0-0.5c-2.8,1.3-6.1,1.6-8.8,1.6c-2.2,0-3.9-0.2-4.4-0.3
			c-0.1,0-0.1-0.1-0.1-0.1c0-0.1,0.1-0.1,0.1-0.1c1.1,0.3,8.2,1.1,13.2-1.3c0-0.5,0.1-1.1,0.2-1.6c-1.9-0.5-6.8-1.8-9.5-3.3
			c0,0,0,0,0,0c-3.4-0.3-6.5,0.4-9.6,1.9c1,1.7,3.4,3.4,5.2,4.2c-0.6,0.3-2.7-0.6-3.4-0.4c0.1,0.2,3.2,4.9,7.1,4.5c0,0,0,0,0,0
			c2-0.1,4.3-0.6,6.5-1.1C35,46.9,36.3,46.6,37.4,46.4z"/>
		<path fill="#FFC200" d="M38,38.8c-2.6-1.5-5.9-4.6-7.6-7.1c-2-0.5-4-0.9-5.7-2c-1.5,2.9,0.7,6.5,3.2,8.1c2.7,1.5,7.5,2.7,9.4,3.2
			C37.5,40.2,37.7,39.5,38,38.8z"/>
		<path fill="#FFC200" d="M35,50.1c1.2-0.4,2.3-0.8,3.3-1c-0.4-0.7-0.7-1.5-0.9-2.4c-1.1,0.2-2.4,0.4-3.8,0.7
			c-2.2,0.5-4.7,1-6.7,1.1c-1.2,1.5-3.8,0.9-4.9-0.3c-0.6,2,1.3,3.7,3.1,4.1C28.1,52.3,31.7,51.1,35,50.1z"/>
		<path fill="#FFC200" d="M60.9,46.6c-0.4,1.5-1.1,2.9-1.9,4.1c0,0,0.1,0,0.1,0c1.6,1.9,5,3.9,7.7,5c1.9,0.6,3.8,1.1,5.6,1.8
			c0.3-2.5-0.8-5.2-2.8-6.8c-2.2-1.4-5.1-2.6-7.6-3.7C61.5,46.9,61.2,46.8,60.9,46.6z"/>
		<path fill="#FFC200" d="M61.1,41.6c0.1,0.7,0.2,1.3,0.2,2c0,1-0.1,1.9-0.3,2.8c0.3,0.1,0.7,0.3,1,0.5c2.6,1.1,5.5,2.4,7.8,3.8
			c1.3,0.3,2.7,1.1,3.7,2.1c1.4-1.1,0.2-4.4-0.3-5.2c-0.5-0.8-1.5-1.7-2.4-2.5C67.8,43.3,64.2,42,61.1,41.6
			C61.1,41.6,61.1,41.6,61.1,41.6z"/>
		<path fill="#FFC200" d="M56.3,53.5C56.3,53.4,56.3,53.4,56.3,53.5c-0.6,0.3-1.1,0.6-1.6,0.9c2,4.3,3.1,7.4,3.5,9.5
			c1.8,2.6,4.3,5,7.5,5.8c1.1-3.5-0.4-7.4-2.5-10.3c0,0,0.1,0,0.1,0C61.5,57.3,58.6,54.8,56.3,53.5z"/>
		<path fill="#FFC200" d="M60.4,39.2C60.4,39.2,60.4,39.2,60.4,39.2c0.3,0.7,0.5,1.4,0.6,2.2c0,0,0.1-0.1,0.1-0.1
			c3.1,0.4,6.8,1.7,9.7,3.5c2-0.4,3.9-0.9,6-0.5c-0.1-2.9-1.7-4.2-3.6-5.3c-0.9-0.2-1.7-0.6-2.6-0.8C67.1,38,62.7,38.7,60.4,39.2z"
			/>
		<path fill="#FFC200" d="M58.8,50.9C58.8,50.9,58.8,50.9,58.8,50.9c-0.7,0.8-1.5,1.6-2.3,2.3c0,0,0,0,0,0c2.4,1.4,5.4,4,7.1,6.2
			c1.1,0,2.4,0.1,3.2,0.9c0.8,0.8,0.8,2.2,1,3.2c3.1-1.6,1.8-5.4-0.4-7.3C64.4,55.2,60.6,53,58.8,50.9z"/>
		<path fill="#FFC200" d="M78.6,32.2c-3.2-1.6-7.1-1.5-10.4-0.2c0,0,0,0,0,0c-3.3,1.3-6.2,3.4-8.3,5.9c0,0,0,0-0.1,0
			c0.2,0.4,0.4,0.7,0.5,1.1c0,0,0,0,0,0c2.3-0.5,6.7-1.3,10.4-0.9C73.8,36.8,77.1,35.2,78.6,32.2z"/>
		<path fill="#FFC200" d="M57.7,35.1c0.8,0.8,1.4,1.7,2,2.6c2.1-2.5,5.1-4.6,8.4-5.9c0.5-3.3,2.7-2.8,5-2.6c-1-2.9-4.4-2.9-6.6-1.7
			c0,0,0,0,0,0C64.7,30.2,61.4,33.6,57.7,35.1z"/>
		<path fill="#FFC200" d="M47.9,31.5c-0.3-2.7-0.5-7.7,0.3-10.8c-0.8-3.1-2.4-6.3-4.9-8.3c-2.1,2.8-2.5,6.4-1.8,9.7c0,0-0.1,0-0.1,0
			c0.8,3,2.6,7.1,4.8,9.7C46.8,31.7,47.4,31.6,47.9,31.5z"/>
		<path fill="#FFC200" d="M48.1,31.5c0.3,0,0.7-0.1,1-0.1c0.4,0,0.8,0,1.2,0.1c0.7-2.6,2.3-7.1,4.5-9.9c-0.1-2-0.4-4,0.2-5.9
			c-3.8-0.5-6,2.6-6.8,5.7c0,0,0,0,0,0C47.7,24.4,47.9,29,48.1,31.5z"/>
		<path fill="#FFC200" d="M43.9,32.7c0.7-0.3,1.4-0.6,2.2-0.8c-2.2-2.6-4-6.8-4.9-9.8c-2.2-0.6-1.7-3.2-1.2-4.9
			c-3.3,0.4-3.7,4.1-2.5,6.6C40,25.9,43,29.5,43.9,32.7z"/>
		<path fill="#FFC200" d="M35.5,27.6c0.5,0.4,1,0.7,1.4,1.1c1.5,1.3,2.5,4.1,3.1,6.1c0.1,0.2,0.1,0.4,0.2,0.6c1-1,2.1-1.9,3.4-2.6
			c-0.8-3.1-3.8-6.7-6.3-8.8c-1.4-1.1-2.7-2.2-4.1-3.3c-0.6,1.3-1,2.6-1,4C33.2,25.8,34.4,26.7,35.5,27.6z"/>
		<path fill="#FFC200" d="M38.1,38.6c0.5-1.1,1.2-2.1,2-3c-0.1-0.2-0.2-0.5-0.3-0.7c-0.7-2-1.6-4.8-3.1-6c-0.4-0.3-0.9-0.7-1.4-1.1
			c-1-0.8-2.2-1.7-3.1-2.6c0,0,0,0.1,0,0.1c-0.6-0.4-0.6-1.2-1.1-1.7c-3.1,1.7-2,5.8-0.4,8.2c0,0,0,0,0,0
			C32.5,34.2,35.6,37.1,38.1,38.6z"/>
		<path fill="#FFC200" d="M54,32.5C54,32.5,54,32.5,54,32.5l0.5-0.7c1.7-2.2,3.6-4.7,5.5-6.7c0,0,0,0,0.1,0c0.4-1.9,1.3-3.8,2.8-5
			c-2.4-2.6-6.2-0.2-8,2c0,0,0,0,0-0.1c-2.1,2.8-3.5,7.1-4.2,9.6C51.8,31.7,52.9,32,54,32.5z"/>
		<path fill="#FFC200" d="M54.2,32.6c1.2,0.6,2.4,1.3,3.4,2.3c3.5-1.4,6.7-4.5,8.5-7.2c0,0,0,0,0,0c1-1.4,1.7-3.6,2.9-4.7
			c-3.1-1.1-6.8-0.2-9,2.5c0,0,0,0,0,0c-1.8,2-3.6,4.3-5.2,6.4L54.2,32.6z"/>
	</g>
	<circle id="pistilo" fill="#8E7650" cx="49.1" cy="43.6" r="12"/>
	<g id="letras">
		<path fill="#383838" d="M57.5,87.5h-3.3l-0.9-2.2h-4.6l-0.9,2.2h-3.3l4.7-10.7h3.6L57.5,87.5z M52.6,83.5L51,79.5l-1.6,3.9H52.6z
			 M43,87.5h-3.2V76.8H43V87.5z M37.8,82.3c0,1.1-0.2,2-0.6,2.6c-0.4,0.7-0.9,1.2-1.4,1.6c-0.8,0.6-1.8,0.9-3.2,0.9h-0.2h-5.6V76.8
			h4.4c0.7,0,1.2,0,1.7,0.1c0.5,0.1,0.9,0.2,1.3,0.3c0.4,0.1,0.7,0.3,1,0.4c0.3,0.2,0.5,0.3,0.7,0.5c0.4,0.3,0.7,0.7,1,1.1
			c0.3,0.4,0.5,0.9,0.7,1.4C37.7,81.1,37.8,81.7,37.8,82.3z M34.5,82.2c0-0.9-0.2-1.5-0.5-2c-0.3-0.5-0.7-0.8-1.2-1
			c-0.5-0.2-0.9-0.2-1.4-0.2H30v6.3h1.4c0.8,0,1.6-0.2,2.2-0.6C34.2,84.3,34.5,83.4,34.5,82.2z M24.6,87.5h-8.1V76.8h7.9v2.2h-4.7v2
			h4.5V83h-4.5v2.3h4.9V87.5z M13.8,87.5h-3.2v-6.2l-2.9,3.6H7.4l-2.9-3.6v6.2H1.4V76.8h2.9l3.3,4l3.3-4h2.9V87.5L13.8,87.5z
			 M98.6,87.4h-3.2V76.7h3.2L98.6,87.4L98.6,87.4z M94,87.4H90l-4.1-5v5h-3.2V76.7h3.2v4.8l3.9-4.8h3.5l-4,5L94,87.4z M80,87.4h-3.2
			V76.7H80V87.4L80,87.4z M75.3,76.7l-4.6,10.9h-1.9L66,81.2l-2.9,6.3h-1.9l-4.5-10.9H60l2.2,5.9l2.6-5.9h2.3l2.5,5.9l2.3-5.9H75.3z
			"/>
	</g>
</g>
</svg>
